<svg xmlns="http://www.w3.org/2000/svg" xmlns:xlink="http://www.w3.org/1999/xlink" width="1000" zoomAndPan="magnify" viewBox="0 0 375 374.999991" height="1000" preserveAspectRatio="xMidYMid meet" version="1.0"><defs><g/><clipPath id="d8d57e71ff"><path d="M 214 283 L 225 283 L 225 293 L 214 293 Z M 214 283 " clip-rule="nonzero"/></clipPath><clipPath id="c9ad8d2afc"><path d="M 104.09375 321.050781 L 98.707031 231.964844 L 220.734375 224.582031 L 226.121094 313.671875 Z M 104.09375 321.050781 " clip-rule="nonzero"/></clipPath><clipPath id="649602305b"><path d="M 53.011719 324.140625 L 44.183594 178.15625 L 217.117188 167.699219 L 225.945312 313.679688 Z M 53.011719 324.140625 " clip-rule="nonzero"/></clipPath><clipPath id="223cb89a8e"><path d="M 98 224 L 214 224 L 214 317 L 98 317 Z M 98 224 " clip-rule="nonzero"/></clipPath><clipPath id="2a126d8726"><path d="M 104.09375 321.050781 L 98.707031 231.964844 L 220.734375 224.582031 L 226.121094 313.671875 Z M 104.09375 321.050781 " clip-rule="nonzero"/></clipPath><clipPath id="a8fa6d18eb"><path d="M 53.011719 324.140625 L 44.183594 178.15625 L 217.117188 167.699219 L 225.945312 313.679688 Z M 53.011719 324.140625 " clip-rule="nonzero"/></clipPath><clipPath id="aa2804ccf3"><path d="M 130.515625 96.433594 L 210 96.433594 L 210 222 L 130.515625 222 Z M 130.515625 96.433594 " clip-rule="nonzero"/></clipPath><clipPath id="e4fbf86491"><path d="M 164 147 L 244 147 L 244 232.183594 L 164 232.183594 Z M 164 147 " clip-rule="nonzero"/></clipPath><clipPath id="86e653936a"><path d="M 215.15625 96.433594 L 244.273438 96.433594 L 244.273438 168.117188 L 215.15625 168.117188 Z M 215.15625 96.433594 " clip-rule="nonzero"/></clipPath><clipPath id="3b57f6290d"><path d="M 216 171 L 227 171 L 227 182 L 216 182 Z M 216 171 " clip-rule="nonzero"/></clipPath><clipPath id="f03dfbd8b3"><path d="M 324.714844 238.199219 L 255.78125 311.335938 L 166.820312 227.488281 L 235.75 154.351562 Z M 324.714844 238.199219 " clip-rule="nonzero"/></clipPath><clipPath id="fa1a24db29"><path d="M 361.953125 273.300781 L 261.644531 379.730469 L 135.566406 260.902344 L 235.878906 154.472656 Z M 361.953125 273.300781 " clip-rule="nonzero"/></clipPath><clipPath id="3a3f2d2cf4"><path d="M 223 176 L 288 176 L 288 312 L 223 312 Z M 223 176 " clip-rule="nonzero"/></clipPath><clipPath id="8f791057cf"><path d="M 324.714844 238.199219 L 255.78125 311.335938 L 166.820312 227.488281 L 235.75 154.351562 Z M 324.714844 238.199219 " clip-rule="nonzero"/></clipPath><clipPath id="f7b5e19a8e"><path d="M 361.953125 273.300781 L 261.644531 379.730469 L 135.566406 260.902344 L 235.878906 154.472656 Z M 361.953125 273.300781 " clip-rule="nonzero"/></clipPath></defs><rect x="-37.5" width="450" fill="#ffffff" y="-37.499999" height="449.999989" fill-opacity="1"/><rect x="-37.5" width="450" fill="#022130" y="-37.499999" height="449.999989" fill-opacity="1"/><g clip-path="url(#d8d57e71ff)"><g clip-path="url(#c9ad8d2afc)"><g clip-path="url(#649602305b)"><path fill="#ffbc2e" d="M 219.34375 283.101562 C 219.65625 283.082031 219.96875 283.09375 220.28125 283.136719 C 220.59375 283.179688 220.898438 283.253906 221.195312 283.355469 C 221.492188 283.457031 221.777344 283.589844 222.050781 283.746094 C 222.320312 283.90625 222.574219 284.089844 222.808594 284.300781 C 223.046875 284.507812 223.257812 284.738281 223.449219 284.988281 C 223.640625 285.238281 223.804688 285.503906 223.941406 285.789062 C 224.078125 286.070312 224.1875 286.363281 224.265625 286.667969 C 224.347656 286.972656 224.398438 287.28125 224.414062 287.597656 C 224.433594 287.910156 224.421875 288.222656 224.378906 288.535156 C 224.335938 288.847656 224.265625 289.152344 224.160156 289.449219 C 224.058594 289.746094 223.929688 290.03125 223.769531 290.304688 C 223.609375 290.574219 223.425781 290.828125 223.21875 291.0625 C 223.011719 291.300781 222.78125 291.511719 222.53125 291.703125 C 222.28125 291.894531 222.011719 292.058594 221.730469 292.195312 C 221.445312 292.332031 221.152344 292.441406 220.847656 292.523438 C 220.542969 292.601562 220.234375 292.652344 219.921875 292.671875 C 219.605469 292.6875 219.292969 292.675781 218.980469 292.632812 C 218.671875 292.59375 218.367188 292.519531 218.066406 292.417969 C 217.769531 292.3125 217.484375 292.183594 217.214844 292.023438 C 216.941406 291.867188 216.6875 291.683594 216.453125 291.472656 C 216.21875 291.265625 216.003906 291.035156 215.816406 290.785156 C 215.625 290.535156 215.460938 290.265625 215.324219 289.984375 C 215.183594 289.703125 215.078125 289.40625 214.996094 289.101562 C 214.917969 288.800781 214.867188 288.488281 214.847656 288.175781 C 214.828125 287.863281 214.839844 287.546875 214.882812 287.238281 C 214.925781 286.925781 215 286.621094 215.101562 286.324219 C 215.203125 286.027344 215.335938 285.742188 215.492188 285.46875 C 215.652344 285.199219 215.835938 284.945312 216.042969 284.707031 C 216.253906 284.472656 216.484375 284.261719 216.734375 284.070312 C 216.984375 283.878906 217.25 283.714844 217.535156 283.578125 C 217.816406 283.441406 218.109375 283.332031 218.414062 283.25 C 218.71875 283.171875 219.027344 283.121094 219.34375 283.101562 Z M 219.34375 283.101562 " fill-opacity="1" fill-rule="nonzero"/></g></g></g><g clip-path="url(#223cb89a8e)"><g clip-path="url(#2a126d8726)"><g clip-path="url(#a8fa6d18eb)"><path fill="#ffbc2e" d="M 213.878906 294.378906 C 213.890625 294.570312 213.722656 294.964844 213.542969 295.167969 C 212.082031 296.410156 210.632812 297.839844 209.171875 299.082031 C 208.808594 299.488281 208.226562 299.332031 207.820312 298.972656 C 207.414062 298.613281 207.570312 298.027344 207.929688 297.621094 C 209.390625 296.378906 210.851562 295.140625 212.121094 293.910156 C 212.480469 293.503906 213.066406 293.660156 213.472656 294.019531 C 213.84375 293.804688 213.867188 294.1875 213.878906 294.378906 Z M 205.097656 301.632812 C 205.121094 302.015625 204.941406 302.21875 204.761719 302.421875 C 203.097656 303.480469 201.625 304.53125 199.960938 305.59375 C 199.589844 305.808594 199.003906 305.648438 198.597656 305.289062 C 198.382812 304.917969 198.539062 304.332031 198.898438 303.929688 C 200.566406 302.867188 202.039062 301.816406 203.703125 300.757812 C 204.074219 300.542969 204.648438 300.507812 205.0625 301.058594 C 205.074219 301.25 205.085938 301.441406 205.097656 301.632812 Z M 195.28125 307.605469 C 195.304688 307.988281 195.136719 308.378906 194.765625 308.59375 C 193.089844 309.464844 191.222656 310.347656 189.535156 311.023438 C 188.972656 311.25 188.578125 311.082031 188.351562 310.519531 C 188.125 309.957031 188.292969 309.5625 188.855469 309.335938 C 190.542969 308.660156 192.21875 307.789062 194.085938 306.90625 C 194.648438 306.683594 195.042969 306.851562 195.460938 307.402344 C 195.257812 307.222656 195.269531 307.414062 195.28125 307.605469 Z M 184.605469 312.089844 C 184.628906 312.472656 184.460938 312.867188 183.898438 313.09375 C 182.019531 313.785156 180.128906 314.28125 178.429688 314.769531 C 177.867188 314.996094 177.460938 314.636719 177.234375 314.074219 C 177.011719 313.511719 177.371094 313.105469 177.933594 312.878906 C 179.820312 312.378906 181.519531 311.894531 183.398438 311.203125 C 183.960938 310.976562 184.367188 311.335938 184.582031 311.707031 C 184.59375 311.898438 184.59375 311.898438 184.605469 312.089844 Z M 173.648438 315.058594 C 173.667969 315.441406 173.320312 316.039062 172.9375 316.0625 C 171.035156 316.367188 169.136719 316.675781 167.222656 316.789062 C 166.648438 316.824219 166.242188 316.464844 166.207031 315.890625 C 166.171875 315.316406 166.53125 314.910156 167.105469 314.878906 C 169.019531 314.761719 170.730469 314.464844 172.632812 314.160156 C 173.015625 314.136719 173.421875 314.496094 173.648438 315.058594 Z M 162.152344 315.5625 C 162.164062 315.753906 162.164062 315.753906 162.152344 315.5625 C 162.007812 316.335938 161.636719 316.550781 161.0625 316.585938 C 158.9375 316.332031 156.988281 315.875 155.230469 315.402344 C 154.644531 315.246094 154.417969 314.683594 154.585938 314.289062 C 154.742188 313.703125 155.304688 313.476562 155.699219 313.648438 C 157.457031 314.117188 159.214844 314.585938 161.152344 314.851562 C 161.726562 314.820312 162.128906 315.179688 162.152344 315.5625 Z M 151.375 311.988281 C 151.386719 312.179688 151.398438 312.371094 151.21875 312.574219 C 150.859375 312.980469 150.296875 313.207031 149.890625 312.84375 C 148.289062 311.789062 146.679688 310.542969 145.246094 309.09375 C 144.839844 308.734375 144.804688 308.160156 145.164062 307.753906 C 145.523438 307.347656 146.097656 307.3125 146.503906 307.671875 C 147.925781 308.929688 149.347656 310.191406 150.742188 311.066406 C 151.148438 311.425781 151.351562 311.605469 151.375 311.988281 Z M 146.484375 234.3125 C 146.554688 235.460938 146.613281 236.414062 146.492188 237.574219 C 146.523438 238.148438 145.972656 238.566406 145.589844 238.589844 C 145.019531 238.625 144.601562 238.074219 144.578125 237.691406 C 144.652344 235.765625 144.546875 234.042969 144.242188 232.140625 C 144.207031 231.566406 144.566406 231.164062 145.140625 231.128906 C 145.714844 231.09375 146.121094 231.453125 146.15625 232.027344 C 146.371094 232.398438 146.425781 233.355469 146.484375 234.3125 Z M 145.019531 225.949219 C 145.042969 226.332031 144.875 226.726562 144.3125 226.953125 C 143.75 227.179688 143.34375 226.820312 143.117188 226.257812 C 142.617188 224.367188 141.75 222.691406 140.890625 221.207031 C 140.675781 220.835938 140.832031 220.25 141.191406 219.84375 C 141.5625 219.628906 142.148438 219.785156 142.554688 220.144531 C 143.425781 221.820312 144.304688 223.6875 144.996094 225.566406 C 145.019531 225.949219 145.019531 225.949219 145.019531 225.949219 Z M 146.0625 243.171875 C 146.0625 243.171875 146.074219 243.363281 146.074219 243.363281 C 145.792969 245.109375 145.335938 247.054688 144.6875 249.015625 C 144.527344 249.601562 143.964844 249.828125 143.574219 249.660156 C 143.179688 249.492188 142.761719 248.941406 142.929688 248.546875 C 143.578125 246.585938 143.84375 244.648438 144.136719 243.09375 C 144.292969 242.507812 144.664062 242.296875 145.238281 242.261719 C 145.621094 242.238281 146.027344 242.597656 146.0625 243.171875 Z M 143.074219 254.105469 C 143.085938 254.296875 143.085938 254.296875 143.097656 254.488281 L 142.457031 256.640625 C 142.144531 257.8125 141.820312 258.792969 141.316406 259.972656 C 141.160156 260.558594 140.597656 260.785156 140.203125 260.617188 C 139.808594 260.449219 139.390625 259.898438 139.558594 259.503906 C 139.871094 258.332031 140.195312 257.351562 140.703125 256.171875 L 141.339844 254.019531 C 141.496094 253.433594 142.058594 253.207031 142.453125 253.375 C 142.847656 253.542969 143.050781 253.722656 143.074219 254.105469 Z M 139.238281 216.121094 C 139.25 216.3125 139.082031 216.707031 138.902344 216.910156 C 138.542969 217.316406 137.957031 217.15625 137.550781 216.796875 C 136.324219 215.527344 134.902344 214.269531 133.300781 213.214844 C 132.894531 212.855469 132.671875 212.292969 133.03125 211.886719 C 133.390625 211.480469 133.953125 211.253906 134.359375 211.613281 C 135.957031 212.667969 137.582031 214.109375 138.820312 215.570312 C 139.214844 215.738281 139.226562 215.929688 139.238281 216.121094 Z M 143.210938 304.03125 C 143.234375 304.414062 143.054688 304.617188 142.875 304.820312 C 142.503906 305.035156 141.929688 305.070312 141.511719 304.519531 C 140.453125 302.855469 139.390625 301.1875 138.703125 299.3125 C 138.476562 298.75 138.644531 298.355469 139.207031 298.128906 C 139.769531 297.902344 140.164062 298.070312 140.390625 298.632812 C 141.257812 300.308594 142.128906 301.984375 143.175781 303.457031 C 143.1875 303.648438 143.199219 303.839844 143.210938 304.03125 Z M 139.523438 265.269531 C 139.535156 265.460938 139.535156 265.460938 139.546875 265.652344 C 139.089844 267.597656 138.617188 269.355469 138.339844 271.101562 C 138.183594 271.6875 137.8125 271.902344 137.238281 271.9375 C 136.652344 271.78125 136.4375 271.40625 136.402344 270.835938 C 136.679688 269.089844 137.140625 267.140625 137.789062 265.179688 C 137.945312 264.59375 138.507812 264.367188 138.902344 264.539062 C 139.273438 264.324219 139.488281 264.695312 139.523438 265.269531 Z M 137.324219 276.539062 C 137.070312 278.667969 136.992188 280.59375 136.90625 282.328125 C 136.941406 282.902344 136.390625 283.316406 136.007812 283.339844 C 135.433594 283.375 135.015625 282.824219 134.992188 282.441406 C 135.066406 280.515625 135.144531 278.59375 135.410156 276.65625 C 135.375 276.082031 135.925781 275.664062 136.511719 275.820312 C 137.074219 275.59375 137.289062 275.964844 137.324219 276.539062 Z M 138.355469 293.570312 C 138.378906 293.953125 138.019531 294.359375 137.648438 294.574219 C 137.085938 294.800781 136.679688 294.441406 136.453125 293.878906 C 136.203125 292.933594 135.941406 291.796875 135.691406 290.851562 C 135.445312 289.90625 135.386719 288.949219 135.328125 287.992188 C 135.292969 287.417969 135.652344 287.011719 136.226562 286.976562 C 136.800781 286.941406 137.207031 287.300781 137.242188 287.875 C 137.300781 288.832031 137.535156 289.585938 137.59375 290.542969 C 137.84375 291.488281 137.902344 292.445312 138.152344 293.390625 C 138.34375 293.378906 138.355469 293.570312 138.355469 293.570312 Z M 130.019531 209.765625 C 130.03125 209.957031 130.03125 209.957031 130.042969 210.148438 C 129.683594 210.550781 129.121094 210.777344 128.535156 210.621094 C 126.769531 209.960938 125.011719 209.492188 123.277344 209.402344 C 122.703125 209.4375 122.285156 208.886719 122.441406 208.300781 C 122.40625 207.726562 122.957031 207.308594 123.542969 207.46875 C 125.480469 207.734375 127.429688 208.191406 129.390625 208.84375 C 129.589844 209.023438 129.996094 209.382812 130.019531 209.765625 Z M 118.625 208.726562 C 118.660156 209.296875 118.300781 209.703125 117.917969 209.726562 C 116.207031 210.023438 114.511719 210.511719 112.429688 211.019531 C 111.867188 211.246094 111.460938 210.886719 111.234375 210.324219 C 111.007812 209.761719 111.367188 209.355469 111.929688 209.128906 C 114 208.429688 115.710938 208.132812 117.601562 207.632812 C 117.984375 207.609375 118.582031 207.960938 118.625 208.726562 C 118.617188 208.535156 118.617188 208.535156 118.625 208.726562 Z M 107.476562 211.703125 C 107.5 212.085938 107.140625 212.492188 106.769531 212.707031 C 104.6875 213.214844 102.796875 213.714844 101.097656 214.203125 C 100.523438 214.238281 100.128906 214.070312 99.902344 213.507812 C 99.867188 212.933594 100.035156 212.539062 100.597656 212.3125 C 102.308594 212.015625 104.199219 211.519531 106.078125 210.828125 C 106.640625 210.601562 107.046875 210.960938 107.273438 211.523438 C 107.464844 211.511719 107.464844 211.511719 107.476562 211.703125 Z M 96.289062 214.109375 C 96.324219 214.683594 95.964844 215.089844 95.390625 215.125 C 94.0625 215.394531 92.722656 215.476562 91.386719 215.558594 C 90.8125 215.59375 90.238281 215.628906 89.472656 215.671875 C 88.898438 215.707031 88.492188 215.347656 88.457031 214.773438 C 88.421875 214.199219 88.78125 213.792969 89.355469 213.761719 C 89.929688 213.726562 90.503906 213.691406 91.078125 213.65625 C 92.226562 213.585938 93.566406 213.503906 94.894531 213.234375 C 95.660156 213.1875 96.253906 213.535156 96.289062 214.109375 Z M 84.773438 214.230469 C 84.773438 214.230469 84.785156 214.421875 84.773438 214.230469 C 84.628906 215.007812 84.257812 215.21875 83.683594 215.253906 C 81.9375 214.976562 80.386719 214.6875 78.820312 214.203125 C 78.617188 214.023438 78.234375 214.046875 78.03125 213.867188 C 77.445312 213.710938 77.21875 213.148438 77.375 212.5625 C 77.53125 211.976562 78.09375 211.753906 78.679688 211.910156 C 78.882812 212.089844 79.265625 212.066406 79.46875 212.246094 C 81.035156 212.726562 82.398438 213.027344 84.144531 213.308594 C 84.539062 213.476562 84.75 213.847656 84.773438 214.230469 Z M 73.996094 210.65625 C 74.007812 210.847656 74.019531 211.039062 73.839844 211.242188 C 73.671875 211.636719 72.917969 211.875 72.523438 211.703125 C 70.933594 210.839844 69.144531 209.796875 67.53125 208.550781 C 67.125 208.191406 67.089844 207.617188 67.449219 207.210938 C 67.808594 206.804688 68.382812 206.769531 68.789062 207.128906 C 70.402344 208.375 71.808594 209.445312 73.398438 210.308594 C 73.757812 209.902344 73.972656 210.273438 73.996094 210.65625 Z M 64.933594 203.714844 C 64.945312 203.90625 64.777344 204.300781 64.597656 204.503906 C 64.238281 204.90625 63.664062 204.941406 63.257812 204.582031 C 62.027344 203.3125 60.597656 201.863281 59.355469 200.402344 C 58.949219 200.042969 59.105469 199.457031 59.464844 199.050781 C 59.824219 198.644531 60.410156 198.800781 60.816406 199.160156 C 62.058594 200.621094 63.492188 202.074219 64.71875 203.34375 C 64.707031 203.152344 64.921875 203.523438 64.933594 203.714844 Z M 57.296875 194.957031 C 57.320312 195.339844 57.140625 195.542969 56.960938 195.746094 C 56.601562 196.152344 56.015625 195.996094 55.609375 195.636719 C 54.371094 194.175781 53.308594 192.507812 52.261719 191.035156 C 52.046875 190.664062 52.011719 190.089844 52.5625 189.675781 C 52.933594 189.460938 53.507812 189.425781 53.925781 189.976562 C 54.972656 191.449219 56.226562 193.101562 57.273438 194.574219 C 57.273438 194.574219 57.285156 194.765625 57.296875 194.957031 Z M 57.296875 194.957031 " fill-opacity="1" fill-rule="nonzero"/></g></g></g><g clip-path="url(#aa2804ccf3)"><path fill="#30e483" d="M 198.398438 96.535156 L 141.78125 96.535156 C 135.554688 96.535156 130.457031 101.632812 130.457031 107.859375 L 130.457031 209.765625 C 130.457031 215.988281 135.554688 221.085938 141.78125 221.085938 L 164.726562 221.085938 L 158.914062 215.277344 C 155.171875 211.546875 153.109375 206.5625 153.109375 201.265625 C 153.109375 195.976562 155.171875 191 158.914062 187.257812 C 162.65625 183.515625 167.632812 181.457031 172.925781 181.457031 C 175.910156 181.457031 178.796875 182.109375 181.417969 183.351562 L 181.417969 155.980469 C 181.417969 145.054688 190.308594 136.167969 201.230469 136.167969 L 209.71875 136.167969 L 209.71875 107.859375 C 209.71875 101.632812 204.621094 96.535156 198.398438 96.535156 Z M 175.75 119.183594 L 164.425781 119.183594 C 161.296875 119.183594 158.765625 116.648438 158.765625 113.519531 C 158.765625 110.390625 161.296875 107.859375 164.425781 107.859375 L 175.75 107.859375 C 178.878906 107.859375 181.410156 110.390625 181.410156 113.519531 C 181.410156 116.648438 178.878906 119.183594 175.75 119.183594 Z M 175.75 119.183594 " fill-opacity="1" fill-rule="nonzero"/></g><g clip-path="url(#e4fbf86491)"><path fill="#30e483" d="M 209.726562 179.882812 L 236.988281 187.730469 C 241.488281 189.039062 244.429688 193.847656 243.523438 198.425781 L 236.765625 232.410156 L 192.0625 232.410156 L 166.921875 207.269531 C 163.601562 203.960938 163.601562 198.578125 166.921875 195.261719 C 170.230469 191.953125 175.617188 191.953125 178.929688 195.261719 L 192.738281 209.074219 L 192.738281 155.980469 C 192.738281 151.292969 196.542969 147.488281 201.230469 147.488281 C 205.917969 147.488281 209.722656 151.292969 209.722656 155.980469 L 209.722656 179.882812 Z M 209.726562 179.882812 " fill-opacity="1" fill-rule="nonzero"/></g><g clip-path="url(#86e653936a)"><path fill="#30e483" d="M 221.347656 132.558594 C 213.921875 133.144531 207.769531 126.996094 208.355469 119.566406 C 208.816406 113.722656 213.550781 108.988281 219.394531 108.527344 C 226.824219 107.941406 232.972656 114.09375 232.386719 121.519531 C 231.925781 127.363281 227.191406 132.101562 221.347656 132.558594 Z M 220.007812 96.4375 C 206.179688 96.640625 195.601562 108.640625 196.3125 122.449219 C 197.359375 142.867188 214.808594 162.824219 219.316406 167.660156 C 219.886719 168.273438 220.859375 168.269531 221.429688 167.65625 C 226.082031 162.667969 244.480469 141.605469 244.480469 120.542969 C 244.480469 107.109375 233.488281 96.238281 220.007812 96.4375 " fill-opacity="1" fill-rule="nonzero"/></g><g fill="#f4f2f1" fill-opacity="1"><g transform="translate(145.460095, 276.566027)"><g><path d="M 1.921875 -3.359375 L 1.921875 -0.6875 L 5.5625 -0.6875 L 5.5625 0 L 1.078125 0 L 1.078125 -7.140625 L 5.484375 -7.140625 L 5.484375 -6.453125 L 1.921875 -6.453125 L 1.921875 -4.0625 L 5.0625 -4.0625 L 5.0625 -3.359375 Z M 1.921875 -3.359375 "/></g></g></g><g fill="#f4f2f1" fill-opacity="1"><g transform="translate(151.488018, 276.566027)"><g><path d="M 1.859375 0 L 1.078125 0 L 1.078125 -7.140625 L 2.328125 -7.140625 L 4.484375 -1.09375 L 4.59375 -1.09375 L 6.75 -7.140625 L 7.953125 -7.140625 L 7.953125 0 L 7.15625 0 L 7.15625 -5.828125 L 7.03125 -5.84375 L 4.921875 0 L 4.09375 0 L 1.984375 -5.84375 L 1.859375 -5.828125 Z M 1.859375 0 "/></g></g></g><g fill="#f4f2f1" fill-opacity="1"><g transform="translate(160.522579, 276.566027)"><g><path d="M 1.921875 -3.359375 L 1.921875 -0.6875 L 5.5625 -0.6875 L 5.5625 0 L 1.078125 0 L 1.078125 -7.140625 L 5.484375 -7.140625 L 5.484375 -6.453125 L 1.921875 -6.453125 L 1.921875 -4.0625 L 5.0625 -4.0625 L 5.0625 -3.359375 Z M 1.921875 -3.359375 "/></g></g></g><g fill="#f4f2f1" fill-opacity="1"><g transform="translate(166.550502, 276.566027)"><g><path d="M 1.078125 0 L 1.078125 -7.140625 L 3.671875 -7.140625 C 4.148438 -7.140625 4.550781 -7.0625 4.875 -6.90625 C 5.195312 -6.75 5.441406 -6.523438 5.609375 -6.234375 C 5.773438 -5.941406 5.859375 -5.597656 5.859375 -5.203125 C 5.859375 -4.765625 5.742188 -4.398438 5.515625 -4.109375 C 5.296875 -3.828125 4.953125 -3.613281 4.484375 -3.46875 L 4.484375 -3.359375 C 4.710938 -3.273438 4.898438 -3.132812 5.046875 -2.9375 C 5.203125 -2.738281 5.335938 -2.445312 5.453125 -2.0625 L 6.125 0 L 5.25 0 L 4.546875 -2.1875 C 4.460938 -2.4375 4.363281 -2.632812 4.25 -2.78125 C 4.132812 -2.9375 3.992188 -3.046875 3.828125 -3.109375 C 3.660156 -3.171875 3.445312 -3.203125 3.1875 -3.203125 L 1.921875 -3.203125 L 1.921875 0 Z M 3.65625 -3.921875 C 4.101562 -3.921875 4.429688 -4.019531 4.640625 -4.21875 C 4.859375 -4.425781 4.96875 -4.742188 4.96875 -5.171875 C 4.96875 -5.597656 4.859375 -5.910156 4.640625 -6.109375 C 4.429688 -6.316406 4.101562 -6.421875 3.65625 -6.421875 L 1.921875 -6.421875 L 1.921875 -3.921875 Z M 3.65625 -3.921875 "/></g></g></g><g fill="#f4f2f1" fill-opacity="1"><g transform="translate(173.159247, 276.566027)"><g><path d="M 3.75 0.109375 C 3.15625 0.109375 2.628906 -0.0234375 2.171875 -0.296875 C 1.710938 -0.578125 1.351562 -0.992188 1.09375 -1.546875 C 0.84375 -2.097656 0.71875 -2.769531 0.71875 -3.5625 C 0.71875 -4.363281 0.851562 -5.039062 1.125 -5.59375 C 1.394531 -6.144531 1.773438 -6.554688 2.265625 -6.828125 C 2.753906 -7.097656 3.316406 -7.234375 3.953125 -7.234375 C 4.640625 -7.234375 5.203125 -7.109375 5.640625 -6.859375 C 6.078125 -6.617188 6.390625 -6.253906 6.578125 -5.765625 L 6.03125 -5.453125 L 5.90625 -5.453125 C 5.71875 -5.816406 5.46875 -6.078125 5.15625 -6.234375 C 4.84375 -6.398438 4.441406 -6.484375 3.953125 -6.484375 C 2.390625 -6.484375 1.609375 -5.507812 1.609375 -3.5625 C 1.609375 -2.550781 1.804688 -1.8125 2.203125 -1.34375 C 2.597656 -0.882812 3.148438 -0.65625 3.859375 -0.65625 C 4.503906 -0.65625 4.988281 -0.800781 5.3125 -1.09375 C 5.644531 -1.394531 5.8125 -1.863281 5.8125 -2.5 L 5.8125 -3.125 L 3.78125 -3.125 L 3.78125 -3.796875 L 6.625 -3.796875 L 6.625 0 L 5.84375 0 L 5.84375 -0.953125 L 5.75 -0.984375 C 5.550781 -0.617188 5.285156 -0.34375 4.953125 -0.15625 C 4.617188 0.0195312 4.21875 0.109375 3.75 0.109375 Z M 3.75 0.109375 "/></g></g></g><g fill="#f4f2f1" fill-opacity="1"><g transform="translate(180.578222, 276.566027)"><g><path d="M 1.921875 -3.359375 L 1.921875 -0.6875 L 5.5625 -0.6875 L 5.5625 0 L 1.078125 0 L 1.078125 -7.140625 L 5.484375 -7.140625 L 5.484375 -6.453125 L 1.921875 -6.453125 L 1.921875 -4.0625 L 5.0625 -4.0625 L 5.0625 -3.359375 Z M 1.921875 -3.359375 "/></g></g></g><g fill="#f4f2f1" fill-opacity="1"><g transform="translate(186.606146, 276.566027)"><g><path d="M 1.90625 0 L 1.078125 0 L 1.078125 -7.140625 L 2.109375 -7.140625 L 5.59375 -1.6875 L 5.71875 -1.703125 L 5.71875 -7.140625 L 6.53125 -7.140625 L 6.53125 0 L 5.65625 0 L 2.015625 -5.828125 L 1.90625 -5.8125 Z M 1.90625 0 "/></g></g></g><g fill="#f4f2f1" fill-opacity="1"><g transform="translate(194.215482, 276.566027)"><g><path d="M 3.953125 0.109375 C 3.328125 0.109375 2.769531 -0.03125 2.28125 -0.3125 C 1.789062 -0.601562 1.40625 -1.023438 1.125 -1.578125 C 0.851562 -2.128906 0.71875 -2.789062 0.71875 -3.5625 C 0.71875 -4.34375 0.851562 -5.003906 1.125 -5.546875 C 1.40625 -6.097656 1.789062 -6.515625 2.28125 -6.796875 C 2.769531 -7.085938 3.328125 -7.234375 3.953125 -7.234375 C 4.617188 -7.234375 5.171875 -7.109375 5.609375 -6.859375 C 6.054688 -6.609375 6.375 -6.226562 6.5625 -5.71875 L 6.03125 -5.359375 L 5.90625 -5.359375 C 5.707031 -5.773438 5.453125 -6.066406 5.140625 -6.234375 C 4.828125 -6.398438 4.429688 -6.484375 3.953125 -6.484375 C 3.492188 -6.484375 3.09375 -6.382812 2.75 -6.1875 C 2.40625 -5.988281 2.128906 -5.671875 1.921875 -5.234375 C 1.710938 -4.796875 1.609375 -4.238281 1.609375 -3.5625 C 1.609375 -2.882812 1.710938 -2.328125 1.921875 -1.890625 C 2.128906 -1.460938 2.40625 -1.148438 2.75 -0.953125 C 3.09375 -0.753906 3.492188 -0.65625 3.953125 -0.65625 C 4.460938 -0.65625 4.878906 -0.769531 5.203125 -1 C 5.535156 -1.238281 5.785156 -1.617188 5.953125 -2.140625 L 6.0625 -2.140625 L 6.625 -1.859375 C 6.457031 -1.222656 6.144531 -0.734375 5.6875 -0.390625 C 5.226562 -0.0546875 4.648438 0.109375 3.953125 0.109375 Z M 3.953125 0.109375 "/></g></g></g><g fill="#f4f2f1" fill-opacity="1"><g transform="translate(201.214699, 276.566027)"><g><path d="M 3.484375 0 L 2.65625 0 L 2.65625 -2.796875 L 0.1875 -7.140625 L 1.109375 -7.140625 L 3.03125 -3.796875 L 3.15625 -3.796875 L 5.0625 -7.140625 L 5.953125 -7.140625 L 3.484375 -2.796875 Z M 3.484375 0 "/></g></g></g><g fill="#f4f2f1" fill-opacity="1"><g transform="translate(207.350003, 276.566027)"><g/></g></g><g fill="#f4f2f1" fill-opacity="1"><g transform="translate(209.800217, 276.566027)"><g><path d="M 6.421875 0 L 5.53125 0 L 4.875 -1.953125 L 1.828125 -1.953125 L 1.15625 0 L 0.28125 0 L 2.78125 -7.140625 L 3.9375 -7.140625 Z M 3.28125 -6.28125 L 2.0625 -2.65625 L 4.625 -2.65625 L 3.40625 -6.28125 Z M 3.28125 -6.28125 "/></g></g></g><g fill="#f4f2f1" fill-opacity="1"><g transform="translate(216.50658, 276.566027)"><g><path d="M 3.640625 -7.140625 C 4.128906 -7.140625 4.546875 -7.050781 4.890625 -6.875 C 5.242188 -6.695312 5.515625 -6.441406 5.703125 -6.109375 C 5.890625 -5.785156 5.984375 -5.40625 5.984375 -4.96875 C 5.984375 -4.519531 5.890625 -4.132812 5.703125 -3.8125 C 5.515625 -3.488281 5.242188 -3.238281 4.890625 -3.0625 C 4.546875 -2.882812 4.128906 -2.796875 3.640625 -2.796875 L 1.921875 -2.796875 L 1.921875 0 L 1.078125 0 L 1.078125 -7.140625 Z M 3.609375 -3.515625 C 4.597656 -3.515625 5.09375 -4 5.09375 -4.96875 C 5.09375 -5.9375 4.597656 -6.421875 3.609375 -6.421875 L 1.921875 -6.421875 L 1.921875 -3.515625 Z M 3.609375 -3.515625 "/></g></g></g><g fill="#f4f2f1" fill-opacity="1"><g transform="translate(223.012832, 276.566027)"><g><path d="M 3.640625 -7.140625 C 4.128906 -7.140625 4.546875 -7.050781 4.890625 -6.875 C 5.242188 -6.695312 5.515625 -6.441406 5.703125 -6.109375 C 5.890625 -5.785156 5.984375 -5.40625 5.984375 -4.96875 C 5.984375 -4.519531 5.890625 -4.132812 5.703125 -3.8125 C 5.515625 -3.488281 5.242188 -3.238281 4.890625 -3.0625 C 4.546875 -2.882812 4.128906 -2.796875 3.640625 -2.796875 L 1.921875 -2.796875 L 1.921875 0 L 1.078125 0 L 1.078125 -7.140625 Z M 3.609375 -3.515625 C 4.597656 -3.515625 5.09375 -4 5.09375 -4.96875 C 5.09375 -5.9375 4.597656 -6.421875 3.609375 -6.421875 L 1.921875 -6.421875 L 1.921875 -3.515625 Z M 3.609375 -3.515625 "/></g></g></g><g clip-path="url(#3b57f6290d)"><g clip-path="url(#f03dfbd8b3)"><g clip-path="url(#fa1a24db29)"><path fill="#ffbc2e" d="M 218.121094 180.230469 C 217.894531 180.011719 217.6875 179.777344 217.503906 179.519531 C 217.324219 179.265625 217.167969 178.992188 217.039062 178.707031 C 216.910156 178.417969 216.808594 178.121094 216.738281 177.816406 C 216.667969 177.507812 216.628906 177.199219 216.617188 176.882812 C 216.609375 176.570312 216.632812 176.257812 216.683594 175.945312 C 216.734375 175.636719 216.816406 175.332031 216.929688 175.039062 C 217.042969 174.746094 217.179688 174.464844 217.347656 174.199219 C 217.515625 173.933594 217.707031 173.683594 217.921875 173.453125 C 218.136719 173.226562 218.375 173.019531 218.628906 172.835938 C 218.886719 172.65625 219.160156 172.5 219.445312 172.371094 C 219.730469 172.242188 220.027344 172.140625 220.335938 172.070312 C 220.640625 172 220.953125 171.960938 221.269531 171.953125 C 221.582031 171.941406 221.894531 171.964844 222.203125 172.015625 C 222.515625 172.066406 222.816406 172.148438 223.113281 172.261719 C 223.40625 172.375 223.6875 172.511719 223.953125 172.679688 C 224.21875 172.847656 224.46875 173.039062 224.695312 173.253906 C 224.925781 173.46875 225.132812 173.707031 225.3125 173.960938 C 225.496094 174.21875 225.652344 174.492188 225.78125 174.777344 C 225.910156 175.066406 226.007812 175.363281 226.082031 175.667969 C 226.152344 175.976562 226.191406 176.285156 226.199219 176.601562 C 226.210938 176.914062 226.1875 177.226562 226.136719 177.539062 C 226.082031 177.847656 226 178.148438 225.890625 178.445312 C 225.777344 178.738281 225.636719 179.019531 225.472656 179.285156 C 225.304688 179.550781 225.113281 179.800781 224.898438 180.027344 C 224.679688 180.257812 224.445312 180.464844 224.1875 180.644531 C 223.933594 180.828125 223.660156 180.984375 223.375 181.113281 C 223.085938 181.242188 222.789062 181.34375 222.484375 181.414062 C 222.175781 181.484375 221.867188 181.523438 221.550781 181.53125 C 221.238281 181.542969 220.925781 181.519531 220.613281 181.46875 C 220.304688 181.414062 220 181.332031 219.707031 181.222656 C 219.414062 181.109375 219.132812 180.972656 218.867188 180.804688 C 218.597656 180.636719 218.351562 180.445312 218.121094 180.230469 Z M 218.121094 180.230469 " fill-opacity="1" fill-rule="nonzero"/></g></g></g><g clip-path="url(#3a3f2d2cf4)"><g clip-path="url(#8f791057cf)"><g clip-path="url(#f7b5e19a8e)"><path fill="#ffbc2e" d="M 230.082031 176.484375 C 230.210938 176.34375 230.613281 176.199219 230.886719 176.191406 C 232.789062 176.40625 234.828125 176.480469 236.730469 176.695312 C 237.273438 176.679688 237.5625 177.214844 237.578125 177.753906 C 237.59375 178.296875 237.058594 178.585938 236.515625 178.601562 C 234.613281 178.386719 232.707031 178.171875 230.941406 178.085938 C 230.398438 178.101562 230.113281 177.570312 230.097656 177.027344 C 229.6875 176.902344 229.949219 176.625 230.082031 176.484375 Z M 241.378906 177.914062 C 241.640625 177.632812 241.914062 177.625 242.183594 177.617188 C 244.097656 178.105469 245.871094 178.457031 247.785156 178.945312 C 248.195312 179.066406 248.480469 179.601562 248.496094 180.144531 C 248.375 180.554688 247.839844 180.839844 247.296875 180.859375 C 245.382812 180.371094 243.609375 180.015625 241.699219 179.53125 C 241.289062 179.40625 240.871094 179.015625 240.984375 178.332031 C 241.117188 178.191406 241.246094 178.054688 241.378906 177.914062 Z M 252.453125 180.976562 C 252.71875 180.695312 253.121094 180.550781 253.53125 180.671875 C 255.3125 181.296875 257.234375 182.054688 258.882812 182.820312 C 259.433594 183.074219 259.582031 183.476562 259.324219 184.027344 C 259.070312 184.578125 258.667969 184.726562 258.117188 184.46875 C 256.46875 183.707031 254.6875 183.078125 252.765625 182.324219 C 252.214844 182.066406 252.066406 181.664062 252.183594 180.984375 C 252.191406 181.253906 252.324219 181.117188 252.453125 180.976562 Z M 263.035156 185.679688 C 263.296875 185.402344 263.699219 185.253906 264.25 185.507812 C 266.039062 186.40625 267.699219 187.441406 269.21875 188.34375 C 269.765625 188.601562 269.78125 189.140625 269.527344 189.691406 C 269.273438 190.242188 268.730469 190.257812 268.179688 190.003906 C 266.523438 188.96875 265.003906 188.0625 263.214844 187.167969 C 262.664062 186.914062 262.648438 186.371094 262.773438 185.960938 C 262.902344 185.820312 262.902344 185.820312 263.035156 185.679688 Z M 272.703125 191.632812 C 272.96875 191.355469 273.640625 191.199219 273.921875 191.460938 C 275.445312 192.636719 276.972656 193.8125 278.367188 195.125 C 278.785156 195.519531 278.800781 196.0625 278.40625 196.480469 C 278.015625 196.898438 277.472656 196.914062 277.054688 196.523438 C 275.660156 195.207031 274.269531 194.164062 272.746094 192.988281 C 272.464844 192.722656 272.449219 192.183594 272.703125 191.632812 Z M 280.941406 199.660156 C 281.074219 199.523438 281.074219 199.523438 280.941406 199.660156 C 281.609375 199.234375 282.019531 199.359375 282.4375 199.753906 C 283.710938 201.476562 284.710938 203.210938 285.570312 204.8125 C 285.859375 205.347656 285.601562 205.898438 285.199219 206.042969 C 284.667969 206.332031 284.117188 206.078125 283.96875 205.675781 C 283.109375 204.070312 282.246094 202.46875 281.113281 200.875 C 280.695312 200.480469 280.679688 199.941406 280.941406 199.660156 Z M 285.722656 209.960938 C 285.855469 209.820312 285.988281 209.683594 286.257812 209.675781 C 286.800781 209.660156 287.347656 209.914062 287.367188 210.457031 C 287.691406 212.34375 287.886719 214.371094 287.8125 216.410156 C 287.828125 216.949219 287.433594 217.371094 286.890625 217.386719 C 286.351562 217.402344 285.933594 217.007812 285.914062 216.464844 C 285.859375 214.570312 285.804688 212.671875 285.484375 211.054688 C 285.46875 210.511719 285.460938 210.242188 285.722656 209.960938 Z M 232.480469 266.730469 C 233.269531 265.894531 233.925781 265.195312 234.855469 264.492188 C 235.25 264.074219 235.929688 264.1875 236.210938 264.453125 C 236.628906 264.847656 236.511719 265.527344 236.25 265.804688 C 234.796875 267.070312 233.613281 268.324219 232.4375 269.851562 C 232.042969 270.269531 231.5 270.285156 231.082031 269.890625 C 230.664062 269.496094 230.648438 268.957031 231.042969 268.539062 C 231.167969 268.125 231.824219 267.429688 232.480469 266.730469 Z M 227.394531 273.527344 C 227.65625 273.25 228.058594 273.101562 228.609375 273.355469 C 229.160156 273.609375 229.175781 274.152344 228.917969 274.703125 C 227.882812 276.359375 227.257812 278.140625 226.765625 279.785156 C 226.640625 280.195312 226.105469 280.480469 225.566406 280.496094 C 225.15625 280.375 224.867188 279.839844 224.851562 279.296875 C 225.476562 277.515625 226.234375 275.59375 227.128906 273.804688 C 227.394531 273.527344 227.394531 273.527344 227.394531 273.527344 Z M 239.226562 260.972656 C 239.226562 260.972656 239.359375 260.832031 239.359375 260.832031 C 240.820312 259.839844 242.554688 258.839844 244.425781 257.96875 C 244.960938 257.683594 245.511719 257.9375 245.65625 258.339844 C 245.804688 258.742188 245.691406 259.425781 245.289062 259.570312 C 243.414062 260.441406 241.820312 261.574219 240.488281 262.425781 C 239.957031 262.714844 239.546875 262.589844 239.128906 262.195312 C 238.847656 261.933594 238.832031 261.390625 239.226562 260.972656 Z M 249.242188 255.65625 C 249.371094 255.519531 249.371094 255.519531 249.503906 255.378906 L 251.507812 254.371094 C 252.574219 253.796875 253.511719 253.363281 254.71875 252.917969 C 255.253906 252.632812 255.804688 252.886719 255.949219 253.289062 C 256.097656 253.691406 255.984375 254.375 255.582031 254.519531 C 254.511719 255.09375 253.574219 255.53125 252.367188 255.972656 L 250.363281 256.980469 C 249.832031 257.269531 249.28125 257.011719 249.132812 256.609375 C 248.984375 256.207031 248.976562 255.9375 249.242188 255.65625 Z M 224.191406 284.472656 C 224.324219 284.332031 224.726562 284.183594 224.996094 284.175781 C 225.539062 284.160156 225.824219 284.695312 225.839844 285.234375 C 225.757812 287 225.8125 288.898438 226.140625 290.785156 C 226.15625 291.328125 225.902344 291.878906 225.359375 291.894531 C 224.816406 291.910156 224.269531 291.65625 224.253906 291.113281 C 223.925781 289.226562 223.859375 287.058594 224.074219 285.152344 C 223.929688 284.75 224.058594 284.609375 224.191406 284.472656 Z M 285.519531 221.359375 C 285.78125 221.082031 286.050781 221.070312 286.324219 221.0625 C 286.734375 221.1875 287.152344 221.582031 287.035156 222.261719 C 286.550781 224.175781 286.066406 226.089844 285.167969 227.878906 C 284.914062 228.429688 284.511719 228.578125 283.960938 228.320312 C 283.410156 228.066406 283.265625 227.664062 283.519531 227.113281 C 284.144531 225.332031 284.769531 223.550781 285.125 221.777344 C 285.253906 221.636719 285.386719 221.5 285.519531 221.359375 Z M 259.804688 250.597656 C 259.933594 250.460938 259.933594 250.460938 260.066406 250.320312 C 261.800781 249.320312 263.402344 248.457031 264.863281 247.464844 C 265.398438 247.179688 265.808594 247.300781 266.226562 247.695312 C 266.515625 248.230469 266.390625 248.640625 265.996094 249.058594 C 264.535156 250.050781 262.800781 251.050781 260.929688 251.921875 C 260.394531 252.207031 259.84375 251.953125 259.695312 251.550781 C 259.285156 251.429688 259.410156 251.015625 259.804688 250.597656 Z M 269.523438 244.480469 C 271.246094 243.207031 272.703125 241.945312 274.023438 240.820312 C 274.417969 240.402344 275.101562 240.515625 275.378906 240.78125 C 275.796875 241.175781 275.683594 241.855469 275.417969 242.136719 C 273.964844 243.398438 272.511719 244.664062 270.917969 245.792969 C 270.523438 246.214844 269.839844 246.097656 269.554688 245.5625 C 269.003906 245.308594 269.128906 244.898438 269.523438 244.480469 Z M 281.222656 232.0625 C 281.488281 231.785156 282.027344 231.769531 282.441406 231.890625 C 282.988281 232.148438 283.003906 232.6875 282.75 233.238281 C 282.234375 234.066406 281.582031 235.035156 281.066406 235.867188 C 280.546875 236.695312 279.890625 237.390625 279.234375 238.089844 C 278.839844 238.507812 278.296875 238.523438 277.878906 238.128906 C 277.460938 237.734375 277.445312 237.195312 277.835938 236.773438 C 278.496094 236.078125 278.882812 235.386719 279.539062 234.691406 C 280.058594 233.863281 280.714844 233.164062 281.230469 232.335938 C 281.09375 232.203125 281.222656 232.0625 281.222656 232.0625 Z M 225.875 295.542969 C 226.007812 295.402344 226.007812 295.402344 226.136719 295.261719 C 226.679688 295.246094 227.230469 295.5 227.515625 296.035156 C 228.246094 297.777344 229.109375 299.378906 230.230469 300.699219 C 230.648438 301.09375 230.535156 301.777344 230 302.0625 C 229.605469 302.484375 228.925781 302.367188 228.636719 301.832031 C 227.503906 300.238281 226.503906 298.507812 225.636719 296.632812 C 225.628906 296.363281 225.613281 295.820312 225.875 295.542969 Z M 232.921875 304.554688 C 233.316406 304.136719 233.859375 304.121094 234.136719 304.382812 C 235.523438 305.425781 237.042969 306.332031 238.839844 307.5 C 239.390625 307.753906 239.40625 308.296875 239.152344 308.84375 C 238.898438 309.394531 238.355469 309.410156 237.804688 309.15625 C 235.875 308.128906 234.488281 307.085938 232.832031 306.046875 C 232.550781 305.785156 232.394531 305.113281 232.921875 304.554688 C 232.789062 304.695312 232.789062 304.695312 232.921875 304.554688 Z M 242.730469 310.636719 C 242.992188 310.359375 243.535156 310.34375 243.945312 310.464844 C 245.742188 311.632812 247.402344 312.667969 248.921875 313.574219 C 249.339844 313.96875 249.488281 314.371094 249.230469 314.921875 C 248.835938 315.339844 248.433594 315.488281 247.882812 315.230469 C 246.496094 314.1875 244.839844 313.152344 243.050781 312.253906 C 242.5 312 242.484375 311.457031 242.738281 310.910156 C 242.597656 310.777344 242.597656 310.777344 242.730469 310.636719 Z M 252.144531 317.140625 C 252.539062 316.722656 253.082031 316.703125 253.5 317.097656 C 254.609375 317.878906 255.585938 318.800781 256.5625 319.722656 C 256.980469 320.117188 257.398438 320.511719 257.957031 321.035156 C 258.375 321.429688 258.390625 321.972656 257.996094 322.390625 C 257.601562 322.808594 257.058594 322.824219 256.640625 322.429688 C 256.222656 322.035156 255.804688 321.640625 255.386719 321.246094 C 254.546875 320.457031 253.570312 319.539062 252.464844 318.757812 C 251.90625 318.230469 251.75 317.558594 252.144531 317.140625 Z M 260.121094 325.445312 C 260.121094 325.445312 260.253906 325.308594 260.121094 325.445312 C 260.785156 325.019531 261.195312 325.144531 261.613281 325.539062 C 262.609375 327 263.460938 328.332031 264.183594 329.800781 C 264.191406 330.074219 264.46875 330.335938 264.476562 330.605469 C 264.765625 331.140625 264.507812 331.691406 263.976562 331.976562 C 263.441406 332.265625 262.890625 332.011719 262.605469 331.476562 C 262.597656 331.203125 262.316406 330.941406 262.308594 330.671875 C 261.589844 329.199219 260.875 328 259.882812 326.539062 C 259.734375 326.136719 259.859375 325.726562 260.121094 325.445312 Z M 264.902344 335.746094 C 265.03125 335.609375 265.164062 335.46875 265.433594 335.460938 C 265.835938 335.3125 266.527344 335.699219 266.675781 336.101562 C 267.132812 337.851562 267.597656 339.871094 267.796875 341.898438 C 267.8125 342.441406 267.417969 342.859375 266.875 342.875 C 266.332031 342.894531 265.914062 342.5 265.898438 341.957031 C 265.703125 339.929688 265.515625 338.171875 265.054688 336.421875 C 264.515625 336.4375 264.636719 336.027344 264.902344 335.746094 Z M 266.050781 347.105469 C 266.183594 346.964844 266.585938 346.816406 266.855469 346.808594 C 267.398438 346.792969 267.816406 347.1875 267.832031 347.730469 C 267.75 349.496094 267.671875 351.53125 267.457031 353.4375 C 267.472656 353.980469 266.941406 354.265625 266.398438 354.28125 C 265.855469 354.296875 265.570312 353.765625 265.554688 353.222656 C 265.769531 351.316406 265.84375 349.28125 265.925781 347.515625 C 265.796875 347.65625 265.917969 347.246094 266.050781 347.105469 Z M 264.902344 358.667969 C 265.164062 358.386719 265.433594 358.378906 265.707031 358.371094 C 266.246094 358.355469 266.535156 358.890625 266.550781 359.429688 C 266.335938 361.335938 265.851562 363.25 265.496094 365.023438 C 265.371094 365.433594 264.976562 365.851562 264.296875 365.734375 C 263.886719 365.613281 263.46875 365.21875 263.582031 364.535156 C 263.9375 362.761719 264.285156 360.71875 264.636719 358.945312 C 264.636719 358.945312 264.769531 358.804688 264.902344 358.667969 Z M 264.902344 358.667969 " fill-opacity="1" fill-rule="nonzero"/></g></g></g><g fill="#d9d9d9" fill-opacity="0.6118"><g transform="translate(94.800218, 260.1999)"><g><path d="M 16.796875 0 L 16.796875 -3.199219 L 4 -3.199219 L 4 -15.996094 L 0.800781 -15.996094 L 0.800781 -3.199219 C 0.800781 -1.441406 2.238281 0 4 0 Z M 16.796875 0 "/></g></g></g><g fill="#d9d9d9" fill-opacity="0.6118"><g transform="translate(115.993254, 260.1999)"><g><path d="M 16.796875 0 L 16.796875 -3.199219 L 10.398438 -3.199219 L 10.398438 -12.796875 L 16.796875 -12.796875 L 16.796875 -15.996094 L 0.800781 -15.996094 L 0.800781 -12.796875 L 7.199219 -12.796875 L 7.199219 -3.199219 L 0.800781 -3.199219 L 0.800781 0 Z M 16.796875 0 "/></g></g></g><g fill="#d9d9d9" fill-opacity="0.6118"><g transform="translate(137.18629, 260.1999)"><g><path d="M 16.796875 -15.996094 L 4 -15.996094 C 2.238281 -15.996094 0.800781 -14.554688 0.800781 -12.796875 L 0.800781 -3.199219 C 0.800781 -1.441406 2.238281 0 4 0 L 13.597656 0 C 15.375 0 16.796875 -1.460938 16.796875 -3.199219 L 16.796875 -9.597656 L 7.199219 -9.597656 L 7.199219 -6.398438 L 13.597656 -6.398438 L 13.597656 -3.199219 L 4 -3.199219 L 4 -12.796875 L 16.796875 -12.796875 Z M 16.796875 -15.996094 "/></g></g></g><g fill="#d9d9d9" fill-opacity="0.6118"><g transform="translate(158.379324, 260.1999)"><g><path d="M 16.796875 -15.996094 L 0.800781 -15.996094 L 0.800781 -12.796875 L 7.199219 -12.796875 L 7.199219 0 L 10.398438 0 L 10.398438 -12.796875 L 16.796875 -12.796875 Z M 16.796875 -15.996094 "/></g></g></g><g fill="#d9d9d9" fill-opacity="0.6118"><g transform="translate(179.572361, 260.1999)"><g><path d="M 4 -15.996094 C 2.238281 -15.996094 0.800781 -14.554688 0.800781 -12.796875 L 0.800781 0 L 4 0 L 4 -6.398438 L 13.597656 -6.398438 L 13.597656 0 L 16.796875 0 L 16.796875 -12.796875 C 16.796875 -14.554688 15.355469 -15.996094 13.597656 -15.996094 Z M 4 -12.796875 L 13.597656 -12.796875 L 13.597656 -9.597656 L 4 -9.597656 Z M 4 -12.796875 "/></g></g></g><g fill="#d9d9d9" fill-opacity="0.6118"><g transform="translate(200.765394, 260.1999)"><g><path d="M 16.796875 -15.996094 L 4 -15.996094 C 2.238281 -15.996094 0.800781 -14.554688 0.800781 -12.796875 L 0.800781 -9.597656 C 0.800781 -7.839844 2.238281 -6.398438 4 -6.398438 L 13.597656 -6.398438 L 13.597656 -3.199219 L 0.800781 -3.199219 L 0.800781 0 L 13.597656 0 C 15.355469 0 16.796875 -1.441406 16.796875 -3.199219 L 16.796875 -6.398438 C 16.796875 -8.15625 15.355469 -9.597656 13.597656 -9.597656 L 4 -9.597656 L 4 -12.796875 L 16.796875 -12.796875 Z M 16.796875 -15.996094 "/></g></g></g><g fill="#ffbc2e" fill-opacity="1"><g transform="translate(93.916339, 259.316028)"><g><path d="M 16.796875 0 L 16.796875 -3.199219 L 4 -3.199219 L 4 -15.996094 L 0.800781 -15.996094 L 0.800781 -3.199219 C 0.800781 -1.441406 2.238281 0 4 0 Z M 16.796875 0 "/></g></g></g><g fill="#ffbc2e" fill-opacity="1"><g transform="translate(115.109375, 259.316028)"><g><path d="M 16.796875 0 L 16.796875 -3.199219 L 10.398438 -3.199219 L 10.398438 -12.796875 L 16.796875 -12.796875 L 16.796875 -15.996094 L 0.800781 -15.996094 L 0.800781 -12.796875 L 7.199219 -12.796875 L 7.199219 -3.199219 L 0.800781 -3.199219 L 0.800781 0 Z M 16.796875 0 "/></g></g></g><g fill="#ffbc2e" fill-opacity="1"><g transform="translate(136.302411, 259.316028)"><g><path d="M 16.796875 -15.996094 L 4 -15.996094 C 2.238281 -15.996094 0.800781 -14.554688 0.800781 -12.796875 L 0.800781 -3.199219 C 0.800781 -1.441406 2.238281 0 4 0 L 13.597656 0 C 15.375 0 16.796875 -1.460938 16.796875 -3.199219 L 16.796875 -9.597656 L 7.199219 -9.597656 L 7.199219 -6.398438 L 13.597656 -6.398438 L 13.597656 -3.199219 L 4 -3.199219 L 4 -12.796875 L 16.796875 -12.796875 Z M 16.796875 -15.996094 "/></g></g></g><g fill="#ffbc2e" fill-opacity="1"><g transform="translate(157.495445, 259.316028)"><g><path d="M 16.796875 -15.996094 L 0.800781 -15.996094 L 0.800781 -12.796875 L 7.199219 -12.796875 L 7.199219 0 L 10.398438 0 L 10.398438 -12.796875 L 16.796875 -12.796875 Z M 16.796875 -15.996094 "/></g></g></g><g fill="#ffbc2e" fill-opacity="1"><g transform="translate(178.688482, 259.316028)"><g><path d="M 4 -15.996094 C 2.238281 -15.996094 0.800781 -14.554688 0.800781 -12.796875 L 0.800781 0 L 4 0 L 4 -6.398438 L 13.597656 -6.398438 L 13.597656 0 L 16.796875 0 L 16.796875 -12.796875 C 16.796875 -14.554688 15.355469 -15.996094 13.597656 -15.996094 Z M 4 -12.796875 L 13.597656 -12.796875 L 13.597656 -9.597656 L 4 -9.597656 Z M 4 -12.796875 "/></g></g></g><g fill="#ffbc2e" fill-opacity="1"><g transform="translate(199.881514, 259.316028)"><g><path d="M 16.796875 -15.996094 L 4 -15.996094 C 2.238281 -15.996094 0.800781 -14.554688 0.800781 -12.796875 L 0.800781 -9.597656 C 0.800781 -7.839844 2.238281 -6.398438 4 -6.398438 L 13.597656 -6.398438 L 13.597656 -3.199219 L 0.800781 -3.199219 L 0.800781 0 L 13.597656 0 C 15.355469 0 16.796875 -1.441406 16.796875 -3.199219 L 16.796875 -6.398438 C 16.796875 -8.15625 15.355469 -9.597656 13.597656 -9.597656 L 4 -9.597656 L 4 -12.796875 L 16.796875 -12.796875 Z M 16.796875 -15.996094 "/></g></g></g><g fill="#d9d9d9" fill-opacity="0.6118"><g transform="translate(221.960366, 260.1999)"><g><path d="M 16.796875 -15.996094 L 4 -15.996094 C 2.238281 -15.996094 0.800781 -14.554688 0.800781 -12.796875 L 0.800781 -3.199219 C 0.800781 -1.441406 2.238281 0 4 0 L 13.597656 0 C 15.375 0 16.796875 -1.460938 16.796875 -3.199219 L 16.796875 -9.597656 L 7.199219 -9.597656 L 7.199219 -6.398438 L 13.597656 -6.398438 L 13.597656 -3.199219 L 4 -3.199219 L 4 -12.796875 L 16.796875 -12.796875 Z M 16.796875 -15.996094 "/></g></g></g><g fill="#d9d9d9" fill-opacity="0.6118"><g transform="translate(243.153402, 260.1999)"><g><path d="M 16.796875 0 L 16.796875 -3.199219 L 10.398438 -3.199219 L 10.398438 -12.796875 L 16.796875 -12.796875 L 16.796875 -15.996094 L 0.800781 -15.996094 L 0.800781 -12.796875 L 7.199219 -12.796875 L 7.199219 -3.199219 L 0.800781 -3.199219 L 0.800781 0 Z M 16.796875 0 "/></g></g></g><g fill="#d9d9d9" fill-opacity="0.6118"><g transform="translate(264.346438, 260.1999)"><g><path d="M 16.796875 -15.996094 L 4 -15.996094 C 2.238281 -15.996094 0.800781 -14.554688 0.800781 -12.796875 L 0.800781 -9.597656 C 0.800781 -7.839844 2.238281 -6.398438 4 -6.398438 L 13.597656 -6.398438 L 13.597656 -3.199219 L 0.800781 -3.199219 L 0.800781 0 L 13.597656 0 C 15.355469 0 16.796875 -1.441406 16.796875 -3.199219 L 16.796875 -6.398438 C 16.796875 -8.15625 15.355469 -9.597656 13.597656 -9.597656 L 4 -9.597656 L 4 -12.796875 L 16.796875 -12.796875 Z M 16.796875 -15.996094 "/></g></g></g><g fill="#ffffff" fill-opacity="1"><g transform="translate(221.076487, 259.316028)"><g><path d="M 16.796875 -15.996094 L 4 -15.996094 C 2.238281 -15.996094 0.800781 -14.554688 0.800781 -12.796875 L 0.800781 -3.199219 C 0.800781 -1.441406 2.238281 0 4 0 L 13.597656 0 C 15.375 0 16.796875 -1.460938 16.796875 -3.199219 L 16.796875 -9.597656 L 7.199219 -9.597656 L 7.199219 -6.398438 L 13.597656 -6.398438 L 13.597656 -3.199219 L 4 -3.199219 L 4 -12.796875 L 16.796875 -12.796875 Z M 16.796875 -15.996094 "/></g></g></g><g fill="#ffffff" fill-opacity="1"><g transform="translate(242.269523, 259.316028)"><g><path d="M 16.796875 0 L 16.796875 -3.199219 L 10.398438 -3.199219 L 10.398438 -12.796875 L 16.796875 -12.796875 L 16.796875 -15.996094 L 0.800781 -15.996094 L 0.800781 -12.796875 L 7.199219 -12.796875 L 7.199219 -3.199219 L 0.800781 -3.199219 L 0.800781 0 Z M 16.796875 0 "/></g></g></g><g fill="#ffffff" fill-opacity="1"><g transform="translate(263.462558, 259.316028)"><g><path d="M 16.796875 -15.996094 L 4 -15.996094 C 2.238281 -15.996094 0.800781 -14.554688 0.800781 -12.796875 L 0.800781 -9.597656 C 0.800781 -7.839844 2.238281 -6.398438 4 -6.398438 L 13.597656 -6.398438 L 13.597656 -3.199219 L 0.800781 -3.199219 L 0.800781 0 L 13.597656 0 C 15.355469 0 16.796875 -1.441406 16.796875 -3.199219 L 16.796875 -6.398438 C 16.796875 -8.15625 15.355469 -9.597656 13.597656 -9.597656 L 4 -9.597656 L 4 -12.796875 L 16.796875 -12.796875 Z M 16.796875 -15.996094 "/></g></g></g></svg>